#!OML:ASF F:\VICON\USERDATA\INSTALL\rory3\rory3.ASF
:FULLY-SPECIFIED
:DEGREES
891
root 0.806433 15.6663 3.02167 7.57995 -40.8969 12.5367
lowerback 0.249265 5.5747 6.16816
upperback 2.97492 7.36578 -1.20984
thorax 3.89086 3.87191 -4.39055
lowerneck 2.79949 -9.79668 -12.324
upperneck 47.7271 -19.0211 8.13964
head 21.085 -9.24578 3.37388
rclavicle -8.74653e-015 -2.54444e-014
rhumerus -24.487 17.5294 -96.1398
rradius 19.207
rwrist 20.0512
rhand -27.4725 -54.6277
rfingers 7.12502
rthumb -0.87642 -84.6057
lclavicle -8.74653e-015 -2.54444e-014
lhumerus -59.7859 -81.7762 136.184
lradius 83.0071
lwrist 26.192
lhand 0.267407 -22.1435
lfingers 7.12502
lthumb 25.8465 6.12025
rfemur -32.3502 -1.59023 -4.06333
rtibia 76.0074
rfoot -4.35711 -10.2088
rtoes -29.0322
lfemur -51.6083 -20.8903 -28.8976
ltibia 57.5962
lfoot -20.3418 -2.8647
ltoes 18.7114
892
root 0.807525 15.6734 3.0232 7.5745 -40.8996 12.4536
lowerback 0.368075 5.57314 6.21498
upperback 2.91759 7.37057 -1.17725
thorax 3.76627 3.87037 -4.39841
lowerneck 2.90109 -9.79551 -12.2382
upperneck 47.744 -18.9815 8.00978
head 21.004 -9.23066 3.30679
rclavicle -3.97569e-014 4.77083e-015
rhumerus -24.6093 17.4111 -96.1372
rradius 19.1824
rwrist 20.0384
rhand -27.5802 -54.4988
rfingers 7.12502
rthumb -0.980439 -84.4762
lclavicle -3.97569e-014 4.77083e-015
lhumerus -59.4182 -81.431 135.861
lradius 82.9111
lwrist 26.0198
lhand 1.11668 -22.0187
lfingers 7.12502
lthumb 26.6595 6.12396
rfemur -32.3927 -1.60752 -3.90661
rtibia 75.9992
rfoot -3.70917 -10.4072
rtoes -31.9179
lfemur -51.4994 -20.8475 -28.9148
ltibia 57.5532
lfoot -20.3913 -2.82948
ltoes 19.2053
893
root 0.807461 15.6756 3.02133 7.54422 -40.8987 12.5085
lowerback 0.395947 5.56398 6.11986
upperback 2.89911 7.3614 -1.1652
thorax 3.71547 3.86102 -4.33905
lowerneck 3.42302 -9.76523 -12.0334
upperneck 47.4625 -19.0035 8.06224
head 20.6208 -9.19605 3.20973
rclavicle 1.12115e-013 -2.22639e-014
rhumerus -24.6102 17.4328 -96.1268
rradius 19.1743
rwrist 19.8836
rhand -27.4361 -54.6631
rfingers 7.12502
rthumb -0.841309 -84.6411
lclavicle 1.12115e-013 -2.22639e-014
lhumerus -59.3746 -81.4459 135.813
lradius 83.0076
lwrist 26.3221
lhand 2.06265 -21.8261
lfingers 7.12502
lthumb 27.5645 6.17552
rfemur -32.4109 -1.62039 -3.93927
rtibia 75.9881
rfoot -3.65138 -10.3944
rtoes -32.2212
lfemur -51.4958 -20.8311 -28.9579
ltibia 57.5097
lfoot -20.4275 -2.7366
ltoes 18.3307
894
root 0.807248 15.6788 3.02405 7.50146 -40.9488 12.5763
lowerback 0.222725 5.60906 6.10215
upperback 3.01544 7.40913 -1.18758
thorax 3.9418 3.89317 -4.32348
lowerneck 3.3023 -9.79456 -11.9492
upperneck 47.3967 -19.0343 8.08214
head 20.5982 -9.1838 3.1912
rclavicle -8.11041e-014 3.18055e-015
rhumerus -24.341 17.4855 -96.0718
rradius 19.0985
rwrist 19.5461
rhand -27.218 -54.8546
rfingers 7.12502
rthumb -0.630594 -84.8335
lclavicle -8.11041e-014 3.18055e-015
lhumerus -59.0501 -81.7431 135.483
lradius 83.1346
lwrist 26.5533
lhand 1.92774 -21.7816
lfingers 7.12502
lthumb 27.4355 6.2406
rfemur -32.4 -1.59868 -4.01579
rtibia 75.9579
rfoot -3.75524 -10.3694
rtoes -32.0315
lfemur -51.4689 -20.8673 -28.9518
ltibia 57.4433
lfoot -20.3679 -2.61374
ltoes 17.0107
895
root 0.807331 15.6809 3.0283 7.40278 -41.0077 12.6511
lowerback 0.144357 5.6483 6.10402
upperback 3.08089 7.45589 -1.2087
thorax 4.06386 3.92161 -4.3305
lowerneck 3.33373 -9.77433 -12.0595
upperneck 47.2794 -19.0603 8.29538
head 20.5732 -9.19655 3.31248
rclavicle -6.75868e-014 -5.24792e-014
rhumerus -24.1831 17.5869 -96.076
rradius 19.0289
rwrist 19.1971
rhand -27.21 -54.8791
rfingers 7.12502
rthumb -0.622894 -84.8579
lclavicle -6.75868e-014 -5.24792e-014
lhumerus -58.9733 -81.9129 135.395
lradius 83.2174
lwrist 26.6656
lhand 1.75465 -21.5294
lfingers 7.12502
lthumb 27.2699 6.51889
rfemur -32.3425 -1.54215 -4.09853
rtibia 75.9147
rfoot -3.80217 -10.3798
rtoes -31.8303
lfemur -51.3573 -20.8992 -28.9946
ltibia 57.3721
lfoot -20.2958 -2.53444
ltoes 16.5591
